<?xml version="1.0" encoding="utf-8"?>
<!-- Generator: Adobe Illustrator 22.0.1, SVG Export Plug-In . SVG Version: 6.00 Build 0)  -->
<svg version="1.1" id="Lag_1" xmlns="http://www.w3.org/2000/svg" xmlns:xlink="http://www.w3.org/1999/xlink" x="0px" y="0px"
	 viewBox="0 0 646.3 238.1" style="enable-background:new 0 0 646.3 238.1;" xml:space="preserve">
<style type="text/css">
	.st0{fill:#344247;}
	.st1{fill-rule:evenodd;clip-rule:evenodd;fill:#344247;}
</style>
<g>
	<path class="st0" d="M109.7,60.9h435h2.8v2.8v103.8v2.8h-2.8h-435h-2.8v-2.8V63.7v-2.8H109.7L109.7,60.9z M541.9,66.5H112.4v98.2
		h429.5V66.5L541.9,66.5z"/>
	<path class="st0" d="M236.7,97.1h-16.6v37.1h17.1c2,0,3.9-0.2,5.6-0.7c1.7-0.4,3.1-1.1,4.3-1.9c1.2-0.9,2.1-1.9,2.8-3.2
		c0.7-1.3,1-2.7,1-4.4c0-1.3-0.2-2.4-0.5-3.4c-0.3-1-0.8-1.8-1.5-2.5c-0.6-0.7-1.4-1.3-2.3-1.8c-0.9-0.5-1.9-1-3-1.3
		c0.7-0.4,1.3-0.8,2-1.3c0.6-0.5,1.2-1.1,1.7-1.7c0.5-0.7,0.9-1.4,1.1-2.3c0.3-0.9,0.4-1.9,0.4-3c0-2.9-1.1-5.2-3.3-6.9
		C243.4,97.9,240.5,97.1,236.7,97.1L236.7,97.1z M235.5,112.7h-8.9v-9.9h9.3c2.1,0,3.7,0.4,4.8,1.3c1.1,0.8,1.7,2,1.7,3.5
		c0,1.7-0.6,3-1.9,3.9C239.3,112.3,237.6,112.7,235.5,112.7L235.5,112.7z M237.4,128.4h-10.8v-10.2h10.3c2.6,0,4.5,0.4,5.7,1.3
		c1.2,0.9,1.9,2.1,1.9,3.7c0,1.7-0.6,3-1.9,3.8C241.3,127.9,239.6,128.4,237.4,128.4L237.4,128.4z"/>
	<path class="st0" d="M315.2,134.1l-10-14c1.3-0.4,2.5-0.9,3.6-1.5c1.1-0.7,2-1.4,2.8-2.4c0.8-0.9,1.4-2,1.8-3.2
		c0.4-1.2,0.7-2.6,0.7-4.2c0-1.8-0.3-3.4-1-4.9c-0.6-1.5-1.5-2.7-2.7-3.7c-1.2-1-2.6-1.8-4.3-2.3c-1.7-0.5-3.6-0.8-5.7-0.8h-16.5
		v37.1h6.5v-12.9h8.2l9.1,12.9H315.2L315.2,134.1z M307.5,109.2c0,1.9-0.7,3.4-2.1,4.6c-1.4,1.1-3.2,1.7-5.6,1.7h-9.6V103h9.5
		c2.4,0,4.3,0.5,5.7,1.6C306.8,105.6,307.5,107.1,307.5,109.2L307.5,109.2z"/>
	<path class="st0" d="M444.7,128.2l-4.2-4.2c-1.6,1.5-3.2,2.7-4.8,3.5c-1.6,0.9-3.6,1.3-5.8,1.3c-1.8,0-3.4-0.3-4.9-1
		c-1.5-0.7-2.8-1.6-3.9-2.8c-1.1-1.2-1.9-2.6-2.5-4.2c-0.6-1.6-0.9-3.3-0.9-5.2s0.3-3.5,0.9-5.1c0.6-1.6,1.4-3,2.5-4.2
		c1.1-1.2,2.4-2.1,3.9-2.8c1.5-0.7,3.1-1,4.9-1c2.1,0,4,0.4,5.7,1.3c1.7,0.8,3.2,2,4.7,3.3l4.2-4.8c-0.9-0.8-1.8-1.6-2.8-2.3
		c-1-0.7-2.1-1.3-3.2-1.8c-1.2-0.5-2.4-0.9-3.8-1.2c-1.4-0.3-2.9-0.4-4.6-0.4c-2.8,0-5.4,0.5-7.7,1.5c-2.3,1-4.3,2.4-6,4.1
		c-1.7,1.7-3,3.8-3.9,6.1c-0.9,2.3-1.4,4.8-1.4,7.5c0,2.7,0.5,5.2,1.4,7.5c1,2.3,2.3,4.3,3.9,6.1c1.7,1.7,3.7,3.1,6,4
		c2.3,1,4.8,1.5,7.5,1.5c1.7,0,3.3-0.1,4.7-0.5c1.4-0.3,2.7-0.7,3.9-1.3c1.2-0.6,2.3-1.3,3.4-2.1
		C442.7,130.1,443.7,129.2,444.7,128.2L444.7,128.2z"/>
	<polygon class="st0" points="504.4,97.1 477,97.1 477,134.1 504.6,134.1 504.6,128.3 483.4,128.3 483.4,118.4 502,118.4 502,112.5 
		483.4,112.5 483.4,103 504.4,103 504.4,97.1 	"/>
	<polygon class="st1" points="175.3,119.4 162.6,119.4 168.9,104.6 172.2,97.1 172.1,96.8 166,96.8 149.7,134.1 156.4,134.1 
		160.2,125.2 177.7,125.2 181.5,134.1 188.4,134.1 181.9,119.4 175.3,119.4 	"/>
	<polygon class="st1" points="357.3,119.4 370.1,119.4 363.7,104.6 360.5,97.1 360.6,96.8 366.7,96.8 383,134.1 376.3,134.1 
		372.5,125.2 355,125.2 351.2,134.1 344.3,134.1 350.7,119.4 357.3,119.4 	"/>
</g>
</svg>
